HIERARCHY
ROOT hip
{
  OFFSET 0 0 0
  CHANNELS 6 Xposition Yposition Zposition Zrotation Yrotation Xrotation
  JOINT abdomen
  {
    OFFSET 0 20.6881 -0.73152
    CHANNELS 3 Zrotation Xrotation Yrotation
    JOINT chest
    {
      OFFSET 0 11.7043 -0.48768
      CHANNELS 3 Zrotation Xrotation Yrotation
      JOINT neck
      {
        OFFSET 0 22.1894 -2.19456
        CHANNELS 3 Zrotation Xrotation Yrotation
        JOINT head
        {
          OFFSET -0.24384 7.07133 1.2192
          CHANNELS 3 Zrotation Xrotation Yrotation
          JOINT leftEye
          {
            OFFSET 4.14528 8.04674 8.04672
            CHANNELS 3 Zrotation Xrotation Yrotation
            End Site
            {
              OFFSET 1 0 0
            }
          }
          JOINT rightEye
          {
            OFFSET -3.6576 8.04674 8.04672
            CHANNELS 3 Zrotation Xrotation Yrotation
            End Site
            {
              OFFSET 1 0 0
            }
          }
        }
      }
      JOINT rCollar
      {
        OFFSET -2.68224 19.2634 -4.8768
        CHANNELS 3 Zrotation Xrotation Yrotation
        JOINT rShldr
        {
          OFFSET -8.77824 -1.95073 1.46304
          CHANNELS 3 Zrotation Xrotation Yrotation
          JOINT rForeArm
          {
            OFFSET -28.1742 -1.7115 0.48768
            CHANNELS 3 Zrotation Xrotation Yrotation
            JOINT rHand
            {
              OFFSET -22.5879 0.773209 7.07136
              CHANNELS 3 Zrotation Xrotation Yrotation
              JOINT rThumb1
              {
                OFFSET -1.2192 -0.487915 3.41376
                CHANNELS 3 Zrotation Xrotation Yrotation
                JOINT rThumb2
                {
                  OFFSET -3.37035 -0.52449 3.41376
                  CHANNELS 3 Zrotation Xrotation Yrotation
                  End Site
                  {
                    OFFSET -1.78271 -1.18214 1.43049
                  }
                }
              }
              JOINT rIndex1
              {
                OFFSET -7.75947 0.938293 5.60832
                CHANNELS 3 Zrotation Xrotation Yrotation
                JOINT rIndex2
                {
                  OFFSET -2.54057 -0.884171 1.56538
                  CHANNELS 3 Zrotation Xrotation Yrotation
                  End Site
                  {
                    OFFSET -1.62519 -0.234802 1.16502
                  }
                }
              }
              JOINT rMid1
              {
                OFFSET -8.24714 1.18213 3.41376
                CHANNELS 3 Zrotation Xrotation Yrotation
                JOINT rMid2
                {
                  OFFSET -3.10165 -0.590103 1.0647
                  CHANNELS 3 Zrotation Xrotation Yrotation
                  End Site
                  {
                    OFFSET -2.48547 -0.328903 0.83742
                  }
                }
              }
              JOINT rRing1
              {
                OFFSET -8.82822 0.546677 1.51678
                CHANNELS 3 Zrotation Xrotation Yrotation
                JOINT rRing2
                {
                  OFFSET -2.60934 -0.819778 -0.0198488
                  CHANNELS 3 Zrotation Xrotation Yrotation
                  End Site
                  {
                    OFFSET -2.33842 -0.294052 0.168128
                  }
                }
              }
              JOINT rPinky1
              {
                OFFSET -8.27202 -0.0477905 -0.4584
                CHANNELS 3 Zrotation Xrotation Yrotation
                JOINT rPinky2
                {
                  OFFSET -1.82734 -0.647385 -0.700984
                  CHANNELS 3 Zrotation Xrotation Yrotation
                  End Site
                  {
                    OFFSET -1.69225 -0.51767 -0.607171
                  }
                }
              }
            }
          }
        }
      }
      JOINT lCollar
      {
        OFFSET 2.68224 19.2634 -4.8768
        CHANNELS 3 Zrotation Xrotation Yrotation
        JOINT lShldr
        {
          OFFSET 8.77824 -1.95073 1.46304
          CHANNELS 3 Zrotation Xrotation Yrotation
          JOINT lForeArm
          {
            OFFSET 28.1742 -1.7115 0.48768
            CHANNELS 3 Zrotation Xrotation Yrotation
            JOINT lHand
            {
              OFFSET 22.5879 0.773209 7.07136
              CHANNELS 3 Zrotation Xrotation Yrotation
              JOINT lThumb1
              {
                OFFSET 1.2192 -0.487915 3.41376
                CHANNELS 3 Zrotation Xrotation Yrotation
                JOINT lThumb2
                {
                  OFFSET 3.37035 -0.52449 3.41376
                  CHANNELS 3 Zrotation Xrotation Yrotation
                  End Site
                  {
                    OFFSET 1.78271 -1.18214 1.43049
                  }
                }
              }
              JOINT lIndex1
              {
                OFFSET 7.75947 0.938293 5.60832
                CHANNELS 3 Zrotation Xrotation Yrotation
                JOINT lIndex2
                {
                  OFFSET 2.54057 -0.884171 1.56538
                  CHANNELS 3 Zrotation Xrotation Yrotation
                  End Site
                  {
                    OFFSET 1.62519 -0.234802 1.16502
                  }
                }
              }
              JOINT lMid1
              {
                OFFSET 8.24714 1.18213 3.41376
                CHANNELS 3 Zrotation Xrotation Yrotation
                JOINT lMid2
                {
                  OFFSET 3.10165 -0.590103 1.0647
                  CHANNELS 3 Zrotation Xrotation Yrotation
                  End Site
                  {
                    OFFSET 2.48547 -0.328903 0.83742
                  }
                }
              }
              JOINT lRing1
              {
                OFFSET 8.82822 0.546677 1.51678
                CHANNELS 3 Zrotation Xrotation Yrotation
                JOINT lRing2
                {
                  OFFSET 2.60934 -0.819778 -0.0198488
                  CHANNELS 3 Zrotation Xrotation Yrotation
                  End Site
                  {
                    OFFSET 2.33842 -0.294052 0.168128
                  }
                }
              }
              JOINT lPinky1
              {
                OFFSET 8.27202 -0.0477905 -0.4584
                CHANNELS 3 Zrotation Xrotation Yrotation
                JOINT lPinky2
                {
                  OFFSET 1.82734 -0.647385 -0.700984
                  CHANNELS 3 Zrotation Xrotation Yrotation
                  End Site
                  {
                    OFFSET 1.69225 -0.51767 -0.607171
                  }
                }
              }
            }
          }
        }
      }
    }
  }
  JOINT rButtock
  {
    OFFSET -8.77824 4.35084 1.2192
    CHANNELS 3 Zrotation Xrotation Yrotation
    JOINT rThigh
    {
      OFFSET 0 -1.70687 -2.19456
      CHANNELS 3 Zrotation Xrotation Yrotation
      JOINT rShin
      {
        OFFSET 0 -36.8199 0.73152
        CHANNELS 3 Zrotation Xrotation Yrotation
        JOINT rFoot
        {
          OFFSET 0.73152 -45.1104 -5.12064
          CHANNELS 3 Zrotation Xrotation Yrotation
          End Site
          {
            OFFSET -1.1221 -3.69964 12.103
          }
        }
      }
    }
  }
  JOINT lButtock
  {
    OFFSET 8.77824 4.35084 1.2192
    CHANNELS 3 Zrotation Xrotation Yrotation
    JOINT lThigh
    {
      OFFSET 0 -1.70687 -2.19456
      CHANNELS 3 Zrotation Xrotation Yrotation
      JOINT lShin
      {
        OFFSET 0 -36.8199 0.73152
        CHANNELS 3 Zrotation Xrotation Yrotation
        JOINT lFoot
        {
          OFFSET -0.73152 -45.1104 -5.12064
          CHANNELS 3 Zrotation Xrotation Yrotation
          End Site
          {
            OFFSET 1.1221 -3.69964 12.103
          }
        }
      }
    }
  }
}
MOTION
Frames:	4
Frame Time:	0.03333
121.0387 57.7625 6.229500000000001 -162.34934 -56.754564 170.589018 0.020711 14.140762 -10.881868 5.867071 -11.441833 22.515508 -12.859923 25.562721 -103.870798 34.045251 27.74697 112.398497 0.00011 -0.0 -0.00148 0.00011 -0.0 -0.00148 -150.168875 21.535256 155.275296 -55.646658 37.269459 -18.083975 27.849735 25.039994 -113.715417 164.093587 -19.109167 145.548205 -103.198647 36.330143 60.111556 -153.268214 -26.60768 77.796506 -162.918425 -37.929127 122.630867 -78.032967 57.181205 62.381172 2.100627 -6.305291 -1.082047 2.922849 0.840862 0.090912 -145.118223 0.186145 -179.185377 -152.38299 -25.063151 -175.329882 12.125978 40.912009 10.190125 -127.844034 -30.916713 -125.412078 -0.117965 -0.714023 0.158257 115.254812 -22.96939 -85.537134 60.317762 53.39446 97.149785 -64.399496 -60.34312 -58.414531 165.726327 -3.398933 -89.692081 -142.207892 -46.158346 -93.373025 151.353674 -17.158076 -121.133549 -5.183644 11.939905 7.650648 -7.904038 -24.807639 3.012739 -4.187875 -3.142717 0.393939 78.572192 -72.041939 95.867373 -14.717232 -0.033351 4.73456 -0.465479 1.226179 -0.430155 128.784405 -29.152973 127.099507 179.993408 75.749121 0.00451 135.58245 60.256642 152.842371 79.589973 -23.870578 106.761584 -53.192191 58.589046 151.147859 -0.000658 -0.001195 -0.000329 63.46946 -54.346334 155.558866 82.747258 0.675225 -7.672447 36.610041 -46.442955 -54.014077
125.3827 58.1808 5.3812999999999995 -163.528461 -49.805062 172.059431 1.458438 12.379009 -0.0 3.589263 -12.618991 14.459175 -7.693759 12.147406 -18.254143 20.597148 -15.181859 39.227211 -0.000251 -0.0 0.002394 -0.000641 0.0 -0.003257 -13.414103 41.902813 15.220283 -144.712135 -9.592661 94.781301 4.035511 6.953786 -115.528423 151.375837 -40.772291 136.759282 2.463737 -2.445587 -0.327214 -98.292612 16.240284 89.513748 -155.193498 -24.299813 122.143246 -7.495587 32.104215 0.283574 -17.370577 35.631977 12.954693 -34.312525 55.150431 29.050119 -145.123135 1.975168 -179.747364 11.974067 44.709231 -3.860038 -156.867453 55.542258 -150.324971 -85.627311 -52.313915 -84.284241 3.670707 17.552147 -4.527668 -74.228795 -11.895485 -93.242131 -156.92202 -6.671941 -17.206122 -156.190043 -25.153455 -149.259803 169.320696 -7.00045 -89.921823 39.776052 -22.210339 -7.408579 35.097905 35.161508 -26.611251 12.209133 24.983813 -6.239685 160.09907 -4.900731 -142.969904 172.304672 -31.362268 -143.65631 145.119792 0.226094 179.200645 148.135936 -43.031933 170.605349 124.851228 -29.038345 122.621322 -47.19648 80.643576 9.904023 -0.000113 -5.9e-05 -5.6e-05 -25.236282 -2.785484 95.886611 65.211844 -21.010305 19.420127 44.512401 41.35268 -137.662737 -179.999304 75.749701 -0.000573 -141.892289 3.217995 -1.630401 -62.582444 68.769881 -41.741149 126.420319 -11.012124 -153.936599
130.3307 59.014 4.6131 -163.522021 -42.830752 172.572456 0.949811 10.241385 67.86899 -8.195684 -9.062986 -52.104981 9.49408 17.537704 87.987199 -25.012196 2.257877 -65.897953 0.001774 0.0 0.001569 -0.004273 0.0 -0.002854 4.238379 -44.742735 -8.648965 -88.750092 -16.822103 -161.926556 -18.277921 62.312142 -110.307788 167.697941 -29.286246 141.474659 -5.13157 4.979032 1.005876 -125.623669 -21.468159 110.776115 -0.32919 0.529322 0.187039 -154.251762 -3.110769 109.674422 -169.090395 -33.247527 145.373406 -56.381231 62.008603 49.549054 -13.617451 -53.680089 -25.681239 11.864092 29.820417 2.226398 -12.374659 -24.158317 -11.75685 -159.223492 55.653987 -149.884871 -0.118242 -0.714095 0.15738 -81.148405 -10.234573 -52.340989 175.837174 -34.252695 -30.476787 -139.171245 -48.83865 -129.811526 7.758839 7.438775 -1.683371 -13.111466 -14.973342 4.333474 -159.642527 -69.973602 -102.396777 129.303634 30.05564 -106.934861 15.318158 32.809279 -11.207059 162.043362 -1.410667 -142.932132 145.099127 -1.522537 178.650879 157.057323 31.915381 -177.158652 168.139858 80.281161 148.037504 -0.362408 -2.61385 2.122914 179.990001 75.747822 0.006841 119.680733 59.528304 -180.0 44.130011 -43.969527 -17.476814 -115.219792 -24.266822 147.911902 -0.00019 0.000147 0.000244 72.989707 -43.807874 -0.0 -82.265192 11.117973 -63.183799 -38.569563 7.511588 171.800195
135.5573 59.336299999999994 4.222 -161.693584 -37.85371 172.359537 5.954442 10.824684 -29.04634 6.345849 -9.210773 48.128896 -9.537956 15.529161 -56.845603 29.567322 1.281224 81.30605 0.002883 0.0 0.002975 0.002828 0.0 0.00202 -153.049923 10.023433 158.668081 -64.484146 28.002689 10.966106 173.757542 -18.869106 -75.817474 -14.615575 -27.995535 -6.777242 -78.03082 38.689123 42.412569 -92.302371 -5.109986 69.04884 -153.453501 -21.067862 121.744016 -87.551109 56.53476 69.439794 -125.642529 49.839691 115.274293 -163.175496 -5.006188 143.106134 -145.120614 1.974819 -179.750097 -154.314656 -12.531788 -177.510029 -23.3876 -36.350812 -22.491722 -146.29447 10.510436 -143.138875 149.905147 22.421545 -154.974728 48.771057 3.376924 7.745923 1.983697 -4.167306 141.037786 -161.630367 -33.416142 -140.067305 10.204014 9.661928 -2.404783 143.038156 -48.062646 -113.440012 173.602046 -52.69285 -119.890658 -3.482327 20.1591 4.303316 36.035438 51.723571 -29.831463 -2.836115 1.674155 -0.300319 0.01449 -1.322998 0.416882 148.09532 -76.783593 171.074395 124.851581 -29.038877 122.621894 24.825838 -40.532951 26.793581 -179.997446 75.749401 -0.002635 123.335335 64.161139 -15.600875 -51.475215 28.674206 -92.616839 -95.536673 58.533896 178.468508 179.907664 75.749387 0.071167 -135.721709 0.506781 -0.0 18.940572 70.767602 44.455522 -104.144115 7.446546 28.239579
